<svg xmlns="http://www.w3.org/2000/svg" width="8" height="8" viewBox="0 0 16 16" shape-rendering="crispEdges"><title>Absent — 値が無い(何も積んでいない空の貨物室)</title><g fill="#2A2530"><rect x="3" y="2" width="10" height="1"/><rect x="2" y="3" width="12" height="10"/><rect x="3" y="13" width="10" height="1"/></g><g fill="#66645F"><rect x="2" y="2" width="1" height="1"/><rect x="15" y="2" width="1" height="1"/><rect x="2" y="15" width="1" height="1"/><rect x="15" y="15" width="1" height="1"/></g><g fill="#B1AFA9"><rect x="0" y="0" width="3" height="2"/><rect x="13" y="0" width="3" height="2"/><rect x="0" y="2" width="2" height="1"/><rect x="13" y="2" width="2" height="1"/><rect x="0" y="13" width="3" height="2"/><rect x="13" y="13" width="3" height="2"/><rect x="0" y="15" width="2" height="1"/><rect x="13" y="15" width="2" height="1"/></g><g fill="#DAB26E"><rect x="4" y="1" width="2" height="1"/><rect x="7" y="1" width="2" height="1"/><rect x="10" y="1" width="2" height="1"/><rect x="1" y="4" width="1" height="2"/><rect x="14" y="4" width="1" height="2"/><rect x="1" y="7" width="1" height="2"/><rect x="14" y="7" width="1" height="2"/><rect x="1" y="10" width="1" height="2"/><rect x="14" y="10" width="1" height="2"/><rect x="4" y="14" width="2" height="1"/><rect x="7" y="14" width="2" height="1"/><rect x="10" y="14" width="2" height="1"/></g></svg>
