<svg xmlns="http://www.w3.org/2000/svg" width="8" height="8" viewBox="0 0 16 16" shape-rendering="crispEdges"><title>defwire — 外とつなぐデータのカートリッジ(JSON の境目の型)の宣言</title><g fill="#1C1822"><rect x="2" y="0" width="12" height="1"/><rect x="1" y="1" width="1" height="11"/><rect x="14" y="1" width="1" height="11"/><rect x="2" y="12" width="1" height="3"/><rect x="13" y="12" width="1" height="3"/><rect x="3" y="15" width="10" height="1"/></g><g fill="#66645F"><rect x="4" y="12" width="1" height="3"/><rect x="6" y="12" width="1" height="3"/><rect x="8" y="12" width="1" height="3"/><rect x="10" y="12" width="1" height="3"/><rect x="12" y="12" width="1" height="3"/></g><g fill="#8A8680"><rect x="2" y="2" width="12" height="1"/><rect x="2" y="11" width="12" height="1"/></g><g fill="#B1AFA9"><rect x="2" y="3" width="12" height="1"/><rect x="2" y="4" width="2" height="6"/><rect x="12" y="4" width="2" height="6"/><rect x="2" y="10" width="12" height="1"/></g><g fill="#DAD5CB"><rect x="2" y="1" width="12" height="1"/></g><g fill="#6A4F22"><rect x="5" y="5" width="5" height="1"/><rect x="5" y="7" width="4" height="1"/></g><g fill="#A8843F"><rect x="3" y="12" width="1" height="3"/><rect x="5" y="12" width="1" height="3"/><rect x="7" y="12" width="1" height="3"/><rect x="9" y="12" width="1" height="3"/><rect x="11" y="12" width="1" height="3"/></g><g fill="#DAB26E"><rect x="4" y="4" width="8" height="1"/><rect x="4" y="5" width="1" height="1"/><rect x="4" y="6" width="6" height="1"/><rect x="4" y="7" width="1" height="1"/><rect x="9" y="7" width="3" height="1"/><rect x="4" y="8" width="8" height="1"/></g><g fill="#4A78BE"><rect x="4" y="9" width="8" height="1"/></g><g fill="#4A4450"><rect x="10" y="5" width="2" height="2"/></g></svg>
