<svg xmlns="http://www.w3.org/2000/svg" width="8" height="8" viewBox="0 0 16 16" shape-rendering="crispEdges"><title>effect(Ask)— 環境に問う受話器</title><g fill="#1C1822"><rect x="3" y="0" width="1" height="1"/><rect x="5" y="0" width="1" height="1"/><rect x="7" y="0" width="1" height="1"/><rect x="2" y="1" width="1" height="1"/><rect x="6" y="1" width="1" height="1"/><rect x="8" y="1" width="1" height="1"/><rect x="1" y="2" width="1" height="1"/><rect x="9" y="2" width="1" height="1"/><rect x="0" y="3" width="1" height="1"/><rect x="10" y="3" width="1" height="1"/><rect x="11" y="4" width="1" height="1"/><rect x="0" y="5" width="1" height="1"/><rect x="6" y="5" width="1" height="1"/><rect x="12" y="5" width="1" height="1"/><rect x="1" y="6" width="1" height="1"/><rect x="5" y="6" width="1" height="1"/><rect x="7" y="6" width="1" height="1"/><rect x="13" y="6" width="1" height="1"/><rect x="2" y="7" width="1" height="1"/><rect x="4" y="7" width="1" height="1"/><rect x="8" y="7" width="1" height="1"/><rect x="14" y="7" width="1" height="1"/><rect x="1" y="8" width="1" height="2"/><rect x="3" y="8" width="1" height="2"/><rect x="9" y="8" width="1" height="2"/><rect x="15" y="8" width="1" height="2"/><rect x="0" y="10" width="1" height="2"/><rect x="2" y="10" width="1" height="1"/><rect x="8" y="10" width="1" height="1"/><rect x="14" y="10" width="1" height="1"/><rect x="2" y="11" width="2" height="1"/><rect x="7" y="11" width="1" height="1"/><rect x="15" y="11" width="1" height="1"/><rect x="1" y="12" width="1" height="2"/><rect x="4" y="12" width="1" height="1"/><rect x="8" y="12" width="1" height="1"/><rect x="14" y="12" width="1" height="1"/><rect x="3" y="13" width="1" height="1"/><rect x="9" y="13" width="1" height="1"/><rect x="13" y="13" width="1" height="1"/><rect x="0" y="14" width="1" height="1"/><rect x="3" y="14" width="3" height="1"/><rect x="10" y="14" width="1" height="1"/><rect x="12" y="14" width="1" height="1"/><rect x="1" y="15" width="2" height="1"/><rect x="6" y="15" width="1" height="1"/><rect x="11" y="15" width="1" height="1"/></g><g fill="#A8843F"><rect x="7" y="1" width="1" height="1"/><rect x="6" y="2" width="2" height="1"/><rect x="5" y="3" width="4" height="1"/><rect x="6" y="4" width="4" height="1"/><rect x="7" y="5" width="4" height="1"/><rect x="8" y="6" width="3" height="1"/><rect x="12" y="6" width="1" height="1"/><rect x="9" y="7" width="3" height="1"/><rect x="13" y="7" width="1" height="1"/><rect x="10" y="8" width="1" height="1"/><rect x="12" y="8" width="1" height="1"/><rect x="14" y="8" width="1" height="1"/><rect x="13" y="9" width="1" height="1"/></g><g fill="#DAB26E"><rect x="4" y="0" width="1" height="1"/><rect x="3" y="1" width="2" height="1"/><rect x="2" y="2" width="2" height="1"/><rect x="5" y="2" width="1" height="1"/><rect x="1" y="3" width="2" height="1"/><rect x="4" y="3" width="1" height="1"/><rect x="0" y="4" width="2" height="1"/><rect x="3" y="4" width="3" height="1"/><rect x="2" y="5" width="4" height="1"/><rect x="2" y="6" width="3" height="1"/><rect x="3" y="7" width="1" height="1"/><rect x="11" y="8" width="1" height="1"/><rect x="10" y="9" width="3" height="1"/><rect x="9" y="10" width="5" height="1"/><rect x="8" y="11" width="7" height="1"/><rect x="9" y="12" width="5" height="1"/><rect x="10" y="13" width="3" height="1"/><rect x="11" y="14" width="1" height="1"/></g><g fill="#EDD6A2"><rect x="5" y="1" width="1" height="1"/><rect x="4" y="2" width="1" height="1"/><rect x="8" y="2" width="1" height="1"/><rect x="3" y="3" width="1" height="1"/><rect x="9" y="3" width="1" height="1"/><rect x="2" y="4" width="1" height="1"/><rect x="10" y="4" width="1" height="1"/><rect x="1" y="5" width="1" height="1"/><rect x="11" y="5" width="1" height="2"/><rect x="12" y="7" width="1" height="1"/><rect x="13" y="8" width="1" height="1"/><rect x="14" y="9" width="1" height="1"/></g><g fill="#A4474B"><rect x="2" y="8" width="1" height="2"/><rect x="1" y="10" width="1" height="2"/><rect x="2" y="12" width="2" height="1"/><rect x="2" y="13" width="1" height="1"/><rect x="1" y="14" width="2" height="1"/><rect x="3" y="15" width="3" height="1"/></g></svg>
