<svg xmlns="http://www.w3.org/2000/svg" width="8" height="8" viewBox="0 0 16 16" shape-rendering="crispEdges"><title>名前の規則 — 業務の名に環境の語を付けない(名札)</title><g fill="#1C1822"><rect x="5" y="0" width="1" height="1"/><rect x="10" y="0" width="1" height="1"/><rect x="1" y="1" width="5" height="1"/><rect x="10" y="1" width="5" height="1"/><rect x="0" y="2" width="1" height="12"/><rect x="15" y="2" width="1" height="12"/><rect x="1" y="14" width="14" height="1"/></g><g fill="#3D3542"><rect x="3" y="8" width="10" height="1"/></g><g fill="#66645F"><rect x="3" y="10" width="6" height="1"/></g><g fill="#8A8680"><rect x="6" y="0" width="4" height="2"/></g><g fill="#A18262"><rect x="1" y="13" width="14" height="1"/></g><g fill="#C8BBA3"><rect x="1" y="6" width="14" height="2"/><rect x="1" y="8" width="2" height="1"/><rect x="13" y="8" width="2" height="1"/><rect x="1" y="9" width="14" height="1"/><rect x="1" y="10" width="2" height="1"/><rect x="9" y="10" width="6" height="1"/><rect x="1" y="11" width="14" height="2"/></g><g fill="#4A78BE"><rect x="1" y="3" width="10" height="1"/><rect x="13" y="3" width="2" height="2"/><rect x="1" y="4" width="2" height="1"/><rect x="8" y="4" width="3" height="1"/><rect x="1" y="5" width="14" height="1"/></g><g fill="#74A0AF"><rect x="1" y="2" width="14" height="1"/></g><g fill="#B4CACC"><rect x="3" y="4" width="5" height="1"/></g><g fill="#4A4450"><rect x="11" y="3" width="2" height="2"/></g></svg>
