<svg xmlns="http://www.w3.org/2000/svg" width="8" height="8" viewBox="0 0 16 16" shape-rendering="crispEdges"><title>層の規則 — 層の向きと、層に置いてよい物(積み重なった床のモジュール)</title><g fill="#1C1822"><rect x="1" y="0" width="14" height="1"/><rect x="0" y="1" width="1" height="3"/><rect x="15" y="1" width="1" height="3"/><rect x="1" y="4" width="2" height="2"/><rect x="4" y="4" width="8" height="2"/><rect x="13" y="4" width="2" height="2"/><rect x="0" y="6" width="1" height="3"/><rect x="15" y="6" width="1" height="3"/><rect x="1" y="9" width="2" height="2"/><rect x="4" y="9" width="8" height="2"/><rect x="13" y="9" width="2" height="2"/><rect x="0" y="11" width="1" height="3"/><rect x="15" y="11" width="1" height="3"/><rect x="1" y="14" width="14" height="1"/></g><g fill="#8A8680"><rect x="3" y="4" width="1" height="2"/><rect x="12" y="4" width="1" height="2"/><rect x="3" y="9" width="1" height="2"/><rect x="12" y="9" width="1" height="2"/></g><g fill="#6A4F22"><rect x="1" y="13" width="14" height="1"/></g><g fill="#DAB26E"><rect x="1" y="12" width="14" height="1"/></g><g fill="#EDD6A2"><rect x="1" y="11" width="14" height="1"/></g><g fill="#3E3D66"><rect x="1" y="8" width="14" height="1"/></g><g fill="#4A78BE"><rect x="1" y="7" width="14" height="1"/></g><g fill="#74A0AF"><rect x="1" y="6" width="14" height="1"/></g><g fill="#A9A657"><rect x="1" y="1" width="10" height="2"/><rect x="13" y="1" width="2" height="2"/></g><g fill="#626036"><rect x="1" y="3" width="14" height="1"/></g><g fill="#4A4450"><rect x="11" y="1" width="2" height="2"/></g></svg>
