<svg xmlns="http://www.w3.org/2000/svg" width="16" height="16" viewBox="0 0 32 32" shape-rendering="crispEdges"><title>Absent — 値が無い(何も積んでいない空の貨物室)</title><g fill="#1D2B53"><rect x="5" y="5" width="4" height="1"/><rect x="13" y="5" width="6" height="1"/><rect x="23" y="5" width="4" height="1"/><rect x="4" y="6" width="1" height="4"/><rect x="9" y="6" width="1" height="2"/><rect x="12" y="6" width="1" height="2"/><rect x="19" y="6" width="1" height="2"/><rect x="22" y="6" width="1" height="2"/><rect x="27" y="6" width="1" height="4"/><rect x="7" y="8" width="2" height="1"/><rect x="13" y="8" width="6" height="1"/><rect x="23" y="8" width="2" height="1"/><rect x="7" y="9" width="1" height="1"/><rect x="24" y="9" width="1" height="1"/><rect x="5" y="10" width="2" height="1"/><rect x="25" y="10" width="2" height="1"/><rect x="15" y="12" width="1" height="1"/><rect x="5" y="13" width="2" height="1"/><rect x="14" y="13" width="1" height="1"/><rect x="16" y="13" width="1" height="1"/><rect x="25" y="13" width="2" height="1"/><rect x="4" y="14" width="1" height="4"/><rect x="7" y="14" width="1" height="4"/><rect x="15" y="14" width="1" height="1"/><rect x="24" y="14" width="1" height="4"/><rect x="27" y="14" width="1" height="4"/><rect x="17" y="15" width="1" height="1"/><rect x="13" y="16" width="1" height="1"/><rect x="16" y="16" width="1" height="1"/><rect x="18" y="16" width="1" height="1"/><rect x="12" y="17" width="1" height="1"/><rect x="14" y="17" width="1" height="1"/><rect x="17" y="17" width="1" height="1"/><rect x="5" y="18" width="2" height="1"/><rect x="13" y="18" width="1" height="1"/><rect x="25" y="18" width="2" height="1"/><rect x="5" y="21" width="2" height="1"/><rect x="25" y="21" width="2" height="1"/><rect x="4" y="22" width="1" height="4"/><rect x="7" y="22" width="1" height="1"/><rect x="24" y="22" width="1" height="1"/><rect x="27" y="22" width="1" height="4"/><rect x="7" y="23" width="2" height="1"/><rect x="13" y="23" width="6" height="1"/><rect x="23" y="23" width="2" height="1"/><rect x="9" y="24" width="1" height="2"/><rect x="12" y="24" width="1" height="2"/><rect x="19" y="24" width="1" height="2"/><rect x="22" y="24" width="1" height="2"/><rect x="5" y="26" width="4" height="1"/><rect x="13" y="26" width="6" height="1"/><rect x="23" y="26" width="4" height="1"/></g><g fill="#5F574F"><rect x="13" y="17" width="1" height="1"/></g><g fill="#FFF1E8"><rect x="5" y="6" width="1" height="1"/><rect x="13" y="6" width="5" height="1"/><rect x="26" y="6" width="1" height="1"/><rect x="5" y="14" width="1" height="3"/><rect x="5" y="22" width="1" height="1"/><rect x="26" y="22" width="1" height="1"/></g><g fill="#FF004D"><rect x="8" y="7" width="1" height="1"/><rect x="14" y="7" width="5" height="1"/><rect x="23" y="7" width="1" height="1"/><rect x="6" y="9" width="1" height="1"/><rect x="25" y="9" width="1" height="1"/><rect x="26" y="14" width="1" height="4"/><rect x="6" y="15" width="1" height="3"/><rect x="6" y="25" width="1" height="1"/><rect x="8" y="25" width="1" height="1"/><rect x="13" y="25" width="6" height="1"/><rect x="23" y="25" width="1" height="1"/><rect x="26" y="25" width="1" height="1"/></g><g fill="#83769C"><rect x="15" y="13" width="1" height="1"/><rect x="17" y="16" width="1" height="1"/></g><g fill="#FF77A8"><rect x="6" y="6" width="3" height="1"/><rect x="18" y="6" width="1" height="1"/><rect x="23" y="6" width="3" height="1"/><rect x="5" y="7" width="3" height="1"/><rect x="13" y="7" width="1" height="1"/><rect x="24" y="7" width="3" height="1"/><rect x="5" y="8" width="2" height="1"/><rect x="25" y="8" width="2" height="1"/><rect x="5" y="9" width="1" height="1"/><rect x="26" y="9" width="1" height="1"/><rect x="6" y="14" width="1" height="1"/><rect x="25" y="14" width="1" height="4"/><rect x="5" y="17" width="1" height="1"/><rect x="6" y="22" width="1" height="1"/><rect x="25" y="22" width="1" height="1"/><rect x="5" y="23" width="2" height="1"/><rect x="25" y="23" width="2" height="1"/><rect x="5" y="24" width="4" height="1"/><rect x="13" y="24" width="6" height="1"/><rect x="23" y="24" width="4" height="1"/><rect x="5" y="25" width="1" height="1"/><rect x="7" y="25" width="1" height="1"/><rect x="24" y="25" width="2" height="1"/></g></svg>
