<svg xmlns="http://www.w3.org/2000/svg" width="16" height="16" viewBox="0 0 32 32" shape-rendering="crispEdges"><title>Conflict — 同じ物を 2 者が同時に取り合った(ぶつかる矢印)</title><g fill="#1D2B53"><rect x="16" y="5" width="1" height="1"/><rect x="12" y="6" width="1" height="1"/><rect x="15" y="6" width="1" height="1"/><rect x="17" y="6" width="1" height="1"/><rect x="8" y="7" width="1" height="1"/><rect x="11" y="7" width="1" height="1"/><rect x="13" y="7" width="1" height="1"/><rect x="16" y="7" width="1" height="1"/><rect x="23" y="7" width="1" height="1"/><rect x="7" y="8" width="1" height="5"/><rect x="9" y="8" width="1" height="1"/><rect x="12" y="8" width="1" height="1"/><rect x="15" y="8" width="1" height="1"/><rect x="22" y="8" width="1" height="1"/><rect x="24" y="8" width="1" height="5"/><rect x="10" y="9" width="1" height="1"/><rect x="14" y="9" width="1" height="3"/><rect x="16" y="9" width="1" height="1"/><rect x="21" y="9" width="1" height="1"/><rect x="11" y="10" width="1" height="1"/><rect x="17" y="10" width="1" height="2"/><rect x="20" y="10" width="1" height="1"/><rect x="12" y="11" width="1" height="1"/><rect x="19" y="11" width="1" height="1"/><rect x="13" y="12" width="2" height="1"/><rect x="17" y="12" width="2" height="1"/><rect x="0" y="13" width="8" height="1"/><rect x="24" y="13" width="8" height="1"/><rect x="0" y="17" width="8" height="1"/><rect x="7" y="18" width="1" height="6"/><rect x="13" y="18" width="1" height="1"/><rect x="18" y="18" width="1" height="1"/><rect x="24" y="18" width="8" height="1"/><rect x="12" y="19" width="1" height="2"/><rect x="14" y="19" width="1" height="3"/><rect x="17" y="19" width="1" height="3"/><rect x="19" y="19" width="1" height="2"/><rect x="24" y="19" width="1" height="5"/><rect x="11" y="21" width="1" height="1"/><rect x="20" y="21" width="1" height="1"/><rect x="10" y="22" width="1" height="1"/><rect x="15" y="22" width="2" height="1"/><rect x="21" y="22" width="1" height="1"/><rect x="9" y="23" width="1" height="1"/><rect x="15" y="23" width="1" height="1"/><rect x="17" y="23" width="1" height="1"/><rect x="22" y="23" width="1" height="1"/><rect x="8" y="24" width="1" height="1"/><rect x="16" y="24" width="1" height="1"/><rect x="20" y="24" width="1" height="1"/><rect x="23" y="24" width="1" height="1"/><rect x="15" y="25" width="1" height="1"/><rect x="19" y="25" width="1" height="1"/><rect x="21" y="25" width="1" height="1"/><rect x="14" y="26" width="1" height="1"/><rect x="16" y="26" width="1" height="1"/><rect x="20" y="26" width="1" height="1"/><rect x="15" y="27" width="1" height="1"/></g><g fill="#7E2553"><rect x="24" y="17" width="8" height="1"/></g><g fill="#FFF1E8"><rect x="9" y="9" width="1" height="1"/><rect x="22" y="9" width="1" height="1"/><rect x="10" y="10" width="1" height="1"/><rect x="21" y="10" width="1" height="1"/><rect x="11" y="11" width="1" height="1"/><rect x="20" y="11" width="1" height="1"/><rect x="12" y="12" width="1" height="1"/><rect x="19" y="12" width="1" height="1"/><rect x="13" y="13" width="1" height="1"/><rect x="18" y="13" width="1" height="1"/><rect x="0" y="14" width="8" height="1"/><rect x="24" y="14" width="8" height="1"/><rect x="15" y="15" width="2" height="2"/></g><g fill="#FF004D"><rect x="15" y="9" width="1" height="1"/><rect x="16" y="23" width="1" height="1"/></g><g fill="#FFA300"><rect x="12" y="7" width="1" height="1"/><rect x="16" y="13" width="1" height="1"/><rect x="19" y="16" width="1" height="1"/><rect x="20" y="25" width="1" height="1"/></g><g fill="#FFEC27"><rect x="16" y="6" width="1" height="1"/><rect x="15" y="10" width="2" height="3"/><rect x="14" y="13" width="2" height="1"/><rect x="17" y="13" width="1" height="1"/><rect x="13" y="14" width="6" height="1"/><rect x="10" y="15" width="5" height="2"/><rect x="17" y="15" width="5" height="1"/><rect x="17" y="16" width="2" height="1"/><rect x="20" y="16" width="2" height="1"/><rect x="13" y="17" width="6" height="1"/><rect x="14" y="18" width="4" height="1"/><rect x="15" y="19" width="2" height="3"/><rect x="15" y="26" width="1" height="1"/></g><g fill="#29ADFF"><rect x="8" y="8" width="1" height="2"/><rect x="8" y="10" width="2" height="1"/><rect x="8" y="11" width="3" height="1"/><rect x="8" y="12" width="4" height="1"/><rect x="8" y="13" width="5" height="2"/><rect x="0" y="15" width="10" height="2"/><rect x="8" y="17" width="5" height="2"/><rect x="8" y="19" width="4" height="2"/><rect x="8" y="21" width="3" height="1"/><rect x="8" y="22" width="2" height="1"/><rect x="8" y="23" width="1" height="1"/></g><g fill="#FF77A8"><rect x="23" y="8" width="1" height="2"/><rect x="22" y="10" width="2" height="1"/><rect x="21" y="11" width="3" height="1"/><rect x="20" y="12" width="4" height="1"/><rect x="19" y="13" width="5" height="2"/><rect x="22" y="15" width="10" height="2"/><rect x="19" y="17" width="5" height="2"/><rect x="20" y="19" width="4" height="2"/><rect x="21" y="21" width="3" height="1"/><rect x="22" y="22" width="2" height="1"/><rect x="23" y="23" width="1" height="1"/></g></svg>
