<svg xmlns="http://www.w3.org/2000/svg" width="16" height="16" viewBox="0 0 32 32" shape-rendering="crispEdges"><title>defeffect — effect(頼みごとを書いた手紙)の宣言 — アンテナ付きの封筒</title><g fill="#1C1822"><rect x="21" y="0" width="1" height="4"/><rect x="27" y="0" width="1" height="4"/><rect x="22" y="4" width="2" height="1"/><rect x="25" y="4" width="2" height="1"/><rect x="23" y="5" width="1" height="1"/><rect x="26" y="5" width="1" height="2"/><rect x="22" y="6" width="2" height="1"/><rect x="21" y="7" width="1" height="1"/><rect x="27" y="7" width="1" height="1"/><rect x="20" y="8" width="1" height="1"/><rect x="28" y="8" width="1" height="1"/><rect x="21" y="9" width="3" height="1"/><rect x="26" y="9" width="2" height="2"/><rect x="23" y="10" width="1" height="1"/><rect x="2" y="11" width="22" height="1"/><rect x="28" y="11" width="2" height="1"/><rect x="1" y="12" width="1" height="17"/><rect x="30" y="12" width="1" height="17"/><rect x="2" y="29" width="28" height="1"/></g><g fill="#2A2530"><rect x="22" y="0" width="5" height="1"/><rect x="22" y="1" width="1" height="2"/><rect x="26" y="1" width="1" height="2"/><rect x="22" y="3" width="5" height="1"/></g><g fill="#54463C"><rect x="27" y="14" width="1" height="1"/></g><g fill="#66645F"><rect x="25" y="5" width="1" height="2"/><rect x="21" y="8" width="7" height="1"/><rect x="25" y="9" width="1" height="3"/></g><g fill="#8A8680"><rect x="24" y="4" width="1" height="3"/><rect x="24" y="9" width="1" height="3"/><rect x="8" y="15" width="4" height="1"/><rect x="8" y="16" width="1" height="1"/><rect x="11" y="16" width="1" height="1"/><rect x="8" y="17" width="4" height="1"/></g><g fill="#B1AFA9"><rect x="22" y="7" width="5" height="1"/></g><g fill="#DAD5CB"><rect x="2" y="12" width="23" height="1"/><rect x="26" y="12" width="4" height="1"/><rect x="2" y="13" width="1" height="15"/></g><g fill="#76573A"><rect x="14" y="23" width="4" height="1"/><rect x="6" y="25" width="1" height="1"/></g><g fill="#A18262"><rect x="3" y="13" width="1" height="1"/><rect x="28" y="13" width="2" height="2"/><rect x="26" y="14" width="1" height="1"/><rect x="25" y="15" width="1" height="1"/><rect x="27" y="15" width="1" height="2"/><rect x="29" y="15" width="1" height="12"/><rect x="23" y="16" width="2" height="1"/><rect x="22" y="17" width="1" height="1"/><rect x="10" y="18" width="2" height="1"/><rect x="20" y="18" width="2" height="1"/><rect x="12" y="19" width="1" height="2"/><rect x="19" y="19" width="1" height="2"/><rect x="11" y="21" width="1" height="1"/><rect x="20" y="21" width="1" height="1"/><rect x="9" y="22" width="2" height="1"/><rect x="21" y="22" width="2" height="1"/><rect x="8" y="23" width="1" height="1"/><rect x="23" y="23" width="1" height="1"/><rect x="7" y="24" width="1" height="1"/><rect x="22" y="24" width="3" height="1"/><rect x="5" y="25" width="1" height="1"/><rect x="7" y="25" width="2" height="1"/><rect x="22" y="25" width="1" height="1"/><rect x="25" y="25" width="2" height="1"/><rect x="4" y="26" width="4" height="1"/><rect x="27" y="26" width="1" height="1"/><rect x="3" y="27" width="1" height="1"/><rect x="7" y="27" width="1" height="1"/><rect x="28" y="27" width="2" height="1"/><rect x="2" y="28" width="28" height="1"/></g><g fill="#C8BBA3"><rect x="4" y="13" width="24" height="1"/><rect x="3" y="14" width="1" height="4"/><rect x="8" y="14" width="18" height="1"/><rect x="12" y="15" width="13" height="1"/><rect x="26" y="15" width="1" height="1"/><rect x="28" y="15" width="1" height="2"/><rect x="9" y="16" width="2" height="1"/><rect x="12" y="16" width="11" height="1"/><rect x="25" y="16" width="2" height="1"/><rect x="12" y="17" width="10" height="1"/><rect x="23" y="17" width="6" height="1"/><rect x="3" y="18" width="7" height="1"/><rect x="12" y="18" width="8" height="1"/><rect x="22" y="18" width="7" height="1"/><rect x="3" y="19" width="9" height="2"/><rect x="13" y="19" width="1" height="1"/><rect x="18" y="19" width="1" height="1"/><rect x="20" y="19" width="9" height="2"/><rect x="14" y="20" width="1" height="1"/><rect x="3" y="21" width="8" height="1"/><rect x="12" y="21" width="1" height="1"/><rect x="19" y="21" width="1" height="1"/><rect x="21" y="21" width="8" height="1"/><rect x="3" y="22" width="6" height="1"/><rect x="11" y="22" width="2" height="1"/><rect x="19" y="22" width="2" height="1"/><rect x="23" y="22" width="6" height="1"/><rect x="3" y="23" width="5" height="1"/><rect x="9" y="23" width="5" height="1"/><rect x="18" y="23" width="5" height="1"/><rect x="24" y="23" width="5" height="1"/><rect x="3" y="24" width="4" height="1"/><rect x="8" y="24" width="14" height="1"/><rect x="25" y="24" width="4" height="1"/><rect x="3" y="25" width="2" height="1"/><rect x="9" y="25" width="13" height="1"/><rect x="23" y="25" width="2" height="1"/><rect x="27" y="25" width="2" height="1"/><rect x="3" y="26" width="1" height="1"/><rect x="8" y="26" width="19" height="1"/><rect x="28" y="26" width="1" height="1"/><rect x="4" y="27" width="3" height="1"/><rect x="8" y="27" width="20" height="1"/></g><g fill="#3E3D66"><rect x="4" y="17" width="4" height="1"/></g><g fill="#4A78BE"><rect x="4" y="14" width="4" height="1"/><rect x="4" y="15" width="1" height="1"/><rect x="6" y="15" width="2" height="1"/><rect x="4" y="16" width="4" height="1"/></g><g fill="#74A0AF"><rect x="5" y="15" width="1" height="1"/></g><g fill="#A4474B"><rect x="26" y="11" width="2" height="1"/><rect x="25" y="12" width="1" height="1"/><rect x="14" y="19" width="4" height="1"/><rect x="13" y="20" width="1" height="1"/><rect x="15" y="20" width="4" height="1"/><rect x="13" y="21" width="6" height="2"/></g><g fill="#4A4450"><rect x="23" y="1" width="3" height="2"/></g></svg>
