<svg xmlns="http://www.w3.org/2000/svg" width="16" height="16" viewBox="0 0 32 32" shape-rendering="crispEdges"><title>defk — Program を組む端末(画面にプロンプト)</title><g fill="#1C1822"><rect x="2" y="2" width="28" height="1"/><rect x="1" y="3" width="1" height="19"/><rect x="30" y="3" width="1" height="19"/><rect x="2" y="22" width="11" height="1"/><rect x="19" y="22" width="11" height="1"/><rect x="12" y="23" width="1" height="1"/><rect x="19" y="23" width="1" height="1"/><rect x="9" y="24" width="4" height="1"/><rect x="19" y="24" width="4" height="1"/><rect x="8" y="25" width="1" height="1"/><rect x="23" y="25" width="2" height="1"/><rect x="29" y="25" width="1" height="1"/><rect x="7" y="26" width="1" height="1"/><rect x="25" y="26" width="4" height="1"/><rect x="30" y="26" width="1" height="4"/><rect x="6" y="27" width="1" height="1"/><rect x="7" y="28" width="22" height="1"/><rect x="28" y="29" width="1" height="1"/><rect x="29" y="30" width="1" height="1"/></g><g fill="#2A2530"><rect x="5" y="8" width="14" height="1"/><rect x="21" y="8" width="1" height="2"/><rect x="5" y="9" width="2" height="1"/><rect x="8" y="9" width="12" height="1"/><rect x="5" y="10" width="3" height="1"/><rect x="9" y="10" width="1" height="1"/><rect x="17" y="10" width="5" height="1"/><rect x="5" y="11" width="2" height="1"/><rect x="8" y="11" width="14" height="1"/><rect x="4" y="12" width="18" height="1"/><rect x="4" y="13" width="3" height="1"/><rect x="13" y="13" width="1" height="1"/><rect x="19" y="13" width="3" height="1"/><rect x="5" y="14" width="17" height="1"/><rect x="5" y="15" width="2" height="1"/><rect x="9" y="15" width="13" height="1"/><rect x="24" y="15" width="5" height="1"/><rect x="5" y="16" width="17" height="2"/><rect x="24" y="16" width="1" height="2"/><rect x="28" y="16" width="1" height="2"/><rect x="24" y="18" width="5" height="1"/></g><g fill="#3D3542"><rect x="5" y="6" width="18" height="1"/><rect x="4" y="7" width="1" height="5"/><rect x="22" y="7" width="1" height="11"/><rect x="4" y="14" width="1" height="4"/><rect x="4" y="18" width="19" height="1"/><rect x="27" y="21" width="1" height="1"/><rect x="14" y="22" width="5" height="1"/></g><g fill="#54463C"><rect x="4" y="6" width="1" height="1"/><rect x="22" y="20" width="1" height="1"/><rect x="28" y="21" width="1" height="1"/></g><g fill="#66645F"><rect x="14" y="23" width="5" height="2"/><rect x="7" y="27" width="18" height="1"/></g><g fill="#8A8680"><rect x="4" y="20" width="3" height="1"/><rect x="13" y="22" width="1" height="3"/><rect x="8" y="26" width="16" height="1"/></g><g fill="#B1AFA9"><rect x="3" y="5" width="1" height="1"/><rect x="21" y="19" width="1" height="1"/><rect x="9" y="25" width="14" height="1"/></g><g fill="#6A4F22"><rect x="29" y="4" width="1" height="18"/><rect x="24" y="5" width="1" height="1"/><rect x="24" y="6" width="4" height="1"/><rect x="24" y="7" width="1" height="1"/><rect x="24" y="8" width="4" height="1"/><rect x="24" y="9" width="1" height="1"/><rect x="24" y="10" width="4" height="1"/><rect x="24" y="11" width="1" height="1"/><rect x="24" y="12" width="4" height="1"/><rect x="24" y="13" width="1" height="2"/><rect x="24" y="19" width="1" height="2"/><rect x="26" y="19" width="1" height="1"/><rect x="2" y="21" width="25" height="1"/></g><g fill="#A8843F"><rect x="10" y="5" width="1" height="1"/><rect x="25" y="5" width="4" height="1"/><rect x="28" y="6" width="1" height="1"/><rect x="25" y="7" width="4" height="1"/><rect x="28" y="8" width="1" height="1"/><rect x="25" y="9" width="4" height="1"/><rect x="28" y="10" width="1" height="1"/><rect x="25" y="11" width="4" height="1"/><rect x="28" y="12" width="1" height="1"/><rect x="25" y="13" width="4" height="2"/><rect x="25" y="19" width="1" height="1"/><rect x="27" y="19" width="2" height="1"/><rect x="25" y="20" width="4" height="1"/></g><g fill="#DAB26E"><rect x="10" y="4" width="2" height="1"/><rect x="4" y="5" width="6" height="1"/><rect x="11" y="5" width="13" height="1"/><rect x="3" y="6" width="1" height="13"/><rect x="23" y="6" width="1" height="13"/><rect x="9" y="19" width="12" height="1"/><rect x="22" y="19" width="2" height="1"/><rect x="9" y="20" width="13" height="1"/><rect x="23" y="20" width="1" height="1"/></g><g fill="#EDD6A2"><rect x="2" y="3" width="28" height="1"/><rect x="2" y="4" width="8" height="1"/><rect x="12" y="4" width="17" height="1"/><rect x="2" y="5" width="1" height="16"/></g><g fill="#C8BBA3"><rect x="3" y="19" width="6" height="1"/><rect x="3" y="20" width="1" height="1"/><rect x="7" y="20" width="2" height="1"/></g><g fill="#3E3D66"><rect x="5" y="7" width="17" height="1"/><rect x="19" y="8" width="2" height="1"/><rect x="20" y="9" width="1" height="1"/><rect x="14" y="13" width="5" height="1"/></g><g fill="#74A0AF"><rect x="7" y="9" width="1" height="1"/><rect x="8" y="10" width="1" height="1"/><rect x="10" y="10" width="7" height="1"/><rect x="7" y="11" width="1" height="1"/></g><g fill="#B4CACC"><rect x="7" y="13" width="6" height="1"/></g><g fill="#A4474B"><rect x="24" y="26" width="1" height="1"/><rect x="29" y="26" width="1" height="1"/><rect x="25" y="27" width="5" height="1"/><rect x="29" y="28" width="1" height="2"/></g><g fill="#A9A657"><rect x="7" y="15" width="2" height="1"/></g><g fill="#4A4450"><rect x="25" y="16" width="3" height="2"/></g></svg>
