<svg xmlns="http://www.w3.org/2000/svg" width="16" height="16" viewBox="0 0 32 32" shape-rendering="crispEdges"><title>defrecord — 値を入れる貨物の木箱(データの型)の宣言</title><g fill="#1D2B53"><rect x="3" y="4" width="26" height="1"/><rect x="2" y="5" width="1" height="24"/><rect x="29" y="5" width="1" height="24"/><rect x="3" y="29" width="26" height="1"/></g><g fill="#7E2553"><rect x="7" y="9" width="16" height="1"/><rect x="7" y="10" width="1" height="13"/></g><g fill="#AB5236"><rect x="23" y="5" width="6" height="1"/><rect x="23" y="6" width="1" height="2"/><rect x="27" y="6" width="2" height="2"/><rect x="5" y="7" width="1" height="1"/><rect x="15" y="7" width="1" height="1"/><rect x="23" y="8" width="6" height="1"/><rect x="28" y="9" width="1" height="19"/><rect x="8" y="10" width="14" height="1"/><rect x="8" y="11" width="13" height="1"/><rect x="24" y="11" width="1" height="1"/><rect x="8" y="12" width="9" height="1"/><rect x="23" y="12" width="2" height="1"/><rect x="8" y="13" width="2" height="1"/><rect x="15" y="13" width="3" height="1"/><rect x="22" y="13" width="3" height="1"/><rect x="8" y="14" width="9" height="1"/><rect x="21" y="14" width="4" height="1"/><rect x="8" y="15" width="8" height="1"/><rect x="19" y="15" width="6" height="1"/><rect x="5" y="16" width="1" height="1"/><rect x="8" y="16" width="7" height="1"/><rect x="18" y="16" width="7" height="1"/><rect x="26" y="16" width="1" height="1"/><rect x="8" y="17" width="6" height="1"/><rect x="17" y="17" width="8" height="1"/><rect x="8" y="18" width="5" height="1"/><rect x="16" y="18" width="9" height="1"/><rect x="8" y="19" width="3" height="1"/><rect x="15" y="19" width="10" height="1"/><rect x="8" y="20" width="1" height="2"/><rect x="14" y="20" width="11" height="1"/><rect x="13" y="21" width="12" height="1"/><rect x="11" y="22" width="4" height="1"/><rect x="19" y="22" width="6" height="1"/><rect x="10" y="23" width="15" height="1"/><rect x="9" y="24" width="16" height="1"/><rect x="5" y="26" width="1" height="1"/><rect x="15" y="26" width="1" height="1"/><rect x="26" y="26" width="1" height="1"/><rect x="3" y="28" width="26" height="1"/></g><g fill="#5F574F"><rect x="25" y="6" width="2" height="1"/><rect x="24" y="7" width="3" height="1"/><rect x="17" y="12" width="2" height="1"/><rect x="10" y="13" width="5" height="1"/><rect x="9" y="20" width="1" height="1"/><rect x="15" y="22" width="4" height="1"/></g><g fill="#FFF1E8"><rect x="24" y="6" width="1" height="1"/></g><g fill="#FFA300"><rect x="4" y="6" width="19" height="1"/><rect x="4" y="7" width="1" height="1"/><rect x="6" y="7" width="9" height="1"/><rect x="16" y="7" width="7" height="1"/><rect x="4" y="8" width="19" height="1"/><rect x="4" y="9" width="3" height="7"/><rect x="24" y="9" width="4" height="1"/><rect x="23" y="10" width="1" height="1"/><rect x="25" y="10" width="3" height="6"/><rect x="22" y="11" width="1" height="1"/><rect x="21" y="12" width="1" height="1"/><rect x="19" y="13" width="2" height="1"/><rect x="18" y="14" width="1" height="1"/><rect x="17" y="15" width="1" height="1"/><rect x="4" y="16" width="1" height="1"/><rect x="6" y="16" width="1" height="1"/><rect x="16" y="16" width="1" height="1"/><rect x="25" y="16" width="1" height="1"/><rect x="27" y="16" width="1" height="1"/><rect x="4" y="17" width="3" height="7"/><rect x="15" y="17" width="1" height="1"/><rect x="25" y="17" width="3" height="8"/><rect x="14" y="18" width="1" height="1"/><rect x="13" y="19" width="1" height="1"/><rect x="11" y="20" width="2" height="1"/><rect x="10" y="21" width="1" height="1"/><rect x="9" y="22" width="1" height="1"/><rect x="8" y="23" width="1" height="1"/><rect x="4" y="24" width="4" height="1"/><rect x="4" y="25" width="24" height="1"/><rect x="4" y="26" width="1" height="1"/><rect x="6" y="26" width="9" height="1"/><rect x="16" y="26" width="10" height="1"/><rect x="27" y="26" width="1" height="1"/><rect x="4" y="27" width="24" height="1"/></g><g fill="#FFEC27"><rect x="3" y="5" width="20" height="1"/><rect x="3" y="6" width="1" height="22"/><rect x="24" y="10" width="1" height="1"/><rect x="23" y="11" width="1" height="1"/><rect x="22" y="12" width="1" height="1"/><rect x="21" y="13" width="1" height="1"/><rect x="19" y="14" width="2" height="1"/><rect x="18" y="15" width="1" height="1"/><rect x="17" y="16" width="1" height="1"/><rect x="16" y="17" width="1" height="1"/><rect x="15" y="18" width="1" height="1"/><rect x="14" y="19" width="1" height="1"/><rect x="13" y="20" width="1" height="1"/><rect x="11" y="21" width="2" height="1"/><rect x="10" y="22" width="1" height="1"/><rect x="9" y="23" width="1" height="1"/><rect x="8" y="24" width="1" height="1"/></g><g fill="#FFCCAA"><rect x="23" y="9" width="1" height="1"/><rect x="22" y="10" width="1" height="1"/><rect x="21" y="11" width="1" height="1"/><rect x="19" y="12" width="2" height="1"/><rect x="18" y="13" width="1" height="1"/><rect x="17" y="14" width="1" height="1"/><rect x="16" y="15" width="1" height="1"/><rect x="15" y="16" width="1" height="1"/><rect x="14" y="17" width="1" height="1"/><rect x="13" y="18" width="1" height="1"/><rect x="11" y="19" width="2" height="1"/><rect x="10" y="20" width="1" height="1"/><rect x="9" y="21" width="1" height="1"/><rect x="8" y="22" width="1" height="1"/><rect x="7" y="23" width="1" height="1"/></g></svg>
