<svg xmlns="http://www.w3.org/2000/svg" width="16" height="16" viewBox="0 0 32 32" shape-rendering="crispEdges"><title>effect(GetTime・Now・Time・Clock)— 時計</title><g fill="#1C1822"><rect x="6" y="1" width="3" height="1"/><rect x="23" y="1" width="3" height="1"/><rect x="5" y="2" width="1" height="1"/><rect x="9" y="2" width="1" height="1"/><rect x="22" y="2" width="1" height="1"/><rect x="26" y="2" width="1" height="1"/><rect x="4" y="3" width="1" height="1"/><rect x="10" y="3" width="1" height="1"/><rect x="21" y="3" width="1" height="1"/><rect x="27" y="3" width="1" height="1"/><rect x="3" y="4" width="1" height="3"/><rect x="11" y="4" width="1" height="1"/><rect x="20" y="4" width="1" height="1"/><rect x="28" y="4" width="1" height="3"/><rect x="11" y="5" width="10" height="1"/><rect x="4" y="7" width="1" height="1"/><rect x="27" y="7" width="1" height="1"/><rect x="5" y="8" width="1" height="1"/><rect x="26" y="8" width="1" height="1"/><rect x="6" y="9" width="1" height="2"/><rect x="25" y="9" width="1" height="2"/><rect x="5" y="11" width="1" height="1"/><rect x="26" y="11" width="1" height="1"/><rect x="4" y="12" width="1" height="10"/><rect x="27" y="12" width="1" height="10"/><rect x="5" y="22" width="1" height="1"/><rect x="26" y="22" width="1" height="1"/><rect x="6" y="23" width="1" height="2"/><rect x="25" y="23" width="1" height="2"/><rect x="7" y="25" width="1" height="1"/><rect x="24" y="25" width="1" height="1"/><rect x="8" y="26" width="2" height="1"/><rect x="22" y="26" width="2" height="1"/><rect x="8" y="27" width="1" height="1"/><rect x="10" y="27" width="1" height="1"/><rect x="21" y="27" width="1" height="1"/><rect x="23" y="27" width="1" height="1"/><rect x="7" y="28" width="1" height="1"/><rect x="9" y="28" width="1" height="1"/><rect x="11" y="28" width="10" height="1"/><rect x="22" y="28" width="1" height="1"/><rect x="24" y="28" width="1" height="1"/><rect x="6" y="29" width="1" height="1"/><rect x="8" y="29" width="1" height="1"/><rect x="23" y="29" width="1" height="1"/><rect x="25" y="29" width="1" height="1"/><rect x="7" y="30" width="1" height="1"/><rect x="24" y="30" width="1" height="1"/></g><g fill="#2A2530"><rect x="15" y="11" width="1" height="5"/><rect x="16" y="16" width="1" height="1"/><rect x="17" y="17" width="1" height="1"/><rect x="18" y="18" width="2" height="1"/><rect x="20" y="19" width="1" height="1"/></g><g fill="#54463C"><rect x="15" y="9" width="2" height="1"/><rect x="8" y="16" width="1" height="2"/><rect x="23" y="16" width="1" height="2"/><rect x="15" y="24" width="2" height="1"/></g><g fill="#66645F"><rect x="9" y="27" width="1" height="1"/><rect x="22" y="27" width="1" height="1"/><rect x="8" y="28" width="1" height="1"/><rect x="23" y="28" width="1" height="1"/><rect x="7" y="29" width="1" height="1"/><rect x="24" y="29" width="1" height="1"/></g><g fill="#6A4F22"><rect x="11" y="6" width="10" height="1"/><rect x="10" y="7" width="1" height="1"/><rect x="21" y="7" width="1" height="1"/><rect x="8" y="8" width="2" height="1"/><rect x="22" y="8" width="2" height="1"/><rect x="7" y="9" width="1" height="2"/><rect x="24" y="9" width="1" height="2"/><rect x="6" y="11" width="1" height="1"/><rect x="25" y="11" width="1" height="1"/><rect x="5" y="12" width="1" height="10"/><rect x="26" y="12" width="1" height="10"/><rect x="6" y="22" width="1" height="1"/><rect x="25" y="22" width="1" height="1"/><rect x="7" y="23" width="1" height="2"/><rect x="24" y="23" width="1" height="2"/><rect x="8" y="25" width="2" height="1"/><rect x="22" y="25" width="2" height="1"/><rect x="10" y="26" width="1" height="1"/><rect x="21" y="26" width="1" height="1"/><rect x="11" y="27" width="10" height="1"/></g><g fill="#A8843F"><rect x="6" y="2" width="3" height="1"/><rect x="23" y="2" width="3" height="1"/><rect x="5" y="3" width="5" height="1"/><rect x="22" y="3" width="5" height="1"/><rect x="4" y="4" width="2" height="1"/><rect x="7" y="4" width="4" height="1"/><rect x="21" y="4" width="2" height="1"/><rect x="24" y="4" width="4" height="1"/><rect x="4" y="5" width="7" height="2"/><rect x="21" y="5" width="7" height="2"/><rect x="5" y="7" width="5" height="1"/><rect x="22" y="7" width="5" height="1"/><rect x="6" y="8" width="2" height="1"/><rect x="24" y="8" width="2" height="1"/><rect x="10" y="23" width="1" height="1"/><rect x="21" y="24" width="2" height="1"/><rect x="21" y="25" width="1" height="1"/></g><g fill="#DAB26E"><rect x="11" y="7" width="10" height="1"/><rect x="10" y="8" width="1" height="1"/><rect x="12" y="8" width="10" height="1"/><rect x="8" y="9" width="1" height="1"/><rect x="11" y="9" width="1" height="1"/><rect x="20" y="9" width="4" height="1"/><rect x="9" y="10" width="2" height="1"/><rect x="21" y="10" width="3" height="1"/><rect x="7" y="11" width="3" height="1"/><rect x="22" y="11" width="3" height="1"/><rect x="6" y="12" width="3" height="1"/><rect x="23" y="12" width="3" height="1"/><rect x="6" y="13" width="2" height="8"/><rect x="24" y="13" width="2" height="8"/><rect x="6" y="21" width="3" height="1"/><rect x="23" y="21" width="3" height="1"/><rect x="7" y="22" width="3" height="1"/><rect x="22" y="22" width="3" height="1"/><rect x="8" y="23" width="2" height="1"/><rect x="21" y="23" width="3" height="1"/><rect x="8" y="24" width="4" height="1"/><rect x="20" y="24" width="1" height="1"/><rect x="23" y="24" width="1" height="1"/><rect x="10" y="25" width="11" height="1"/><rect x="11" y="26" width="10" height="1"/></g><g fill="#EDD6A2"><rect x="6" y="4" width="1" height="1"/><rect x="23" y="4" width="1" height="1"/><rect x="11" y="8" width="1" height="1"/><rect x="9" y="9" width="2" height="1"/><rect x="8" y="10" width="1" height="1"/></g><g fill="#76573A"><rect x="10" y="22" width="1" height="1"/></g><g fill="#A18262"><rect x="12" y="9" width="3" height="1"/><rect x="17" y="9" width="3" height="1"/><rect x="11" y="10" width="1" height="1"/><rect x="20" y="10" width="1" height="1"/><rect x="10" y="11" width="1" height="1"/><rect x="21" y="11" width="1" height="1"/><rect x="9" y="12" width="1" height="1"/><rect x="22" y="12" width="1" height="1"/><rect x="8" y="13" width="1" height="3"/><rect x="23" y="13" width="1" height="3"/><rect x="8" y="18" width="1" height="3"/><rect x="23" y="18" width="1" height="3"/><rect x="9" y="21" width="1" height="1"/><rect x="22" y="21" width="1" height="1"/><rect x="11" y="22" width="1" height="2"/><rect x="21" y="22" width="1" height="1"/><rect x="20" y="23" width="1" height="1"/><rect x="12" y="24" width="3" height="1"/><rect x="17" y="24" width="3" height="1"/></g><g fill="#C8BBA3"><rect x="12" y="10" width="8" height="1"/><rect x="11" y="11" width="4" height="1"/><rect x="16" y="11" width="5" height="1"/><rect x="10" y="12" width="5" height="1"/><rect x="16" y="12" width="6" height="1"/><rect x="9" y="13" width="6" height="4"/><rect x="16" y="13" width="7" height="3"/><rect x="17" y="16" width="6" height="1"/><rect x="9" y="17" width="7" height="1"/><rect x="18" y="17" width="5" height="1"/><rect x="9" y="18" width="9" height="1"/><rect x="20" y="18" width="3" height="1"/><rect x="9" y="19" width="11" height="1"/><rect x="21" y="19" width="2" height="1"/><rect x="9" y="20" width="14" height="1"/><rect x="10" y="21" width="12" height="1"/><rect x="12" y="22" width="9" height="1"/><rect x="12" y="23" width="8" height="1"/></g><g fill="#A4474B"><rect x="15" y="16" width="1" height="1"/><rect x="16" y="17" width="1" height="1"/></g></svg>
