<svg xmlns="http://www.w3.org/2000/svg" width="16" height="16" viewBox="0 0 32 32" shape-rendering="crispEdges"><title>warning — 違反の警告(灯った琥珀の灯)</title><g fill="#000000"><rect x="8" y="23" width="1" height="1"/><rect x="11" y="23" width="1" height="1"/><rect x="20" y="23" width="1" height="1"/><rect x="23" y="23" width="1" height="1"/></g><g fill="#1D2B53"><rect x="13" y="6" width="6" height="1"/><rect x="11" y="7" width="2" height="1"/><rect x="19" y="7" width="2" height="1"/><rect x="10" y="8" width="1" height="1"/><rect x="21" y="8" width="1" height="1"/><rect x="9" y="9" width="1" height="2"/><rect x="22" y="9" width="1" height="2"/><rect x="8" y="11" width="1" height="2"/><rect x="23" y="11" width="1" height="2"/><rect x="7" y="13" width="1" height="4"/><rect x="24" y="13" width="1" height="4"/><rect x="6" y="17" width="2" height="1"/><rect x="24" y="17" width="2" height="1"/><rect x="5" y="18" width="1" height="3"/><rect x="26" y="18" width="1" height="3"/><rect x="4" y="21" width="1" height="4"/><rect x="27" y="21" width="1" height="4"/><rect x="5" y="25" width="22" height="1"/></g><g fill="#AB5236"><rect x="20" y="8" width="1" height="1"/><rect x="21" y="9" width="1" height="2"/><rect x="17" y="11" width="1" height="1"/><rect x="22" y="11" width="1" height="2"/><rect x="17" y="12" width="2" height="6"/><rect x="23" y="13" width="1" height="5"/></g><g fill="#5F574F"><rect x="5" y="22" width="9" height="1"/><rect x="18" y="22" width="9" height="1"/><rect x="5" y="23" width="3" height="1"/><rect x="9" y="23" width="2" height="1"/><rect x="12" y="23" width="2" height="1"/><rect x="18" y="23" width="2" height="1"/><rect x="21" y="23" width="2" height="1"/><rect x="24" y="23" width="3" height="1"/><rect x="5" y="24" width="22" height="1"/></g><g fill="#C2C3C7"><rect x="6" y="19" width="20" height="1"/></g><g fill="#FFF1E8"><rect x="6" y="18" width="20" height="1"/></g><g fill="#FFA300"><rect x="13" y="7" width="6" height="1"/><rect x="11" y="8" width="9" height="1"/><rect x="10" y="9" width="1" height="2"/><rect x="12" y="9" width="1" height="1"/><rect x="14" y="9" width="7" height="1"/><rect x="13" y="10" width="8" height="1"/><rect x="9" y="11" width="2" height="2"/><rect x="13" y="11" width="4" height="3"/><rect x="18" y="11" width="4" height="1"/><rect x="19" y="12" width="3" height="1"/><rect x="8" y="13" width="1" height="5"/><rect x="10" y="13" width="1" height="1"/><rect x="19" y="13" width="4" height="5"/><rect x="10" y="14" width="7" height="1"/><rect x="10" y="15" width="2" height="1"/><rect x="13" y="15" width="4" height="1"/><rect x="10" y="16" width="7" height="2"/><rect x="15" y="22" width="3" height="1"/><rect x="14" y="23" width="4" height="1"/></g><g fill="#FFEC27"><rect x="11" y="9" width="1" height="1"/><rect x="13" y="9" width="1" height="1"/><rect x="11" y="10" width="2" height="4"/><rect x="9" y="13" width="1" height="5"/><rect x="12" y="15" width="1" height="1"/><rect x="14" y="22" width="1" height="1"/></g><g fill="#83769C"><rect x="6" y="20" width="20" height="1"/><rect x="5" y="21" width="22" height="1"/></g></svg>
