<svg xmlns="http://www.w3.org/2000/svg" width="16" height="16" viewBox="0 0 32 32" shape-rendering="crispEdges"><title>決まりの規則 — ADR の決まりと Python の規則(天秤)</title><g fill="#1C1822"><rect x="12" y="0" width="1" height="6"/><rect x="19" y="0" width="1" height="6"/><rect x="2" y="6" width="11" height="1"/><rect x="19" y="6" width="11" height="1"/><rect x="1" y="7" width="1" height="3"/><rect x="30" y="7" width="1" height="3"/><rect x="2" y="10" width="2" height="1"/><rect x="5" y="10" width="9" height="1"/><rect x="18" y="10" width="9" height="1"/><rect x="28" y="10" width="2" height="1"/><rect x="3" y="11" width="1" height="1"/><rect x="6" y="11" width="1" height="2"/><rect x="13" y="11" width="1" height="13"/><rect x="18" y="11" width="1" height="13"/><rect x="25" y="11" width="1" height="2"/><rect x="28" y="11" width="1" height="1"/><rect x="2" y="12" width="1" height="4"/><rect x="4" y="12" width="1" height="1"/><rect x="27" y="12" width="1" height="1"/><rect x="29" y="12" width="1" height="4"/><rect x="4" y="13" width="2" height="2"/><rect x="7" y="13" width="1" height="2"/><rect x="24" y="13" width="1" height="2"/><rect x="26" y="13" width="2" height="2"/><rect x="8" y="15" width="1" height="1"/><rect x="23" y="15" width="1" height="1"/><rect x="27" y="15" width="1" height="1"/><rect x="1" y="16" width="1" height="1"/><rect x="3" y="16" width="1" height="1"/><rect x="8" y="16" width="2" height="1"/><rect x="22" y="16" width="2" height="1"/><rect x="27" y="16" width="2" height="1"/><rect x="30" y="16" width="1" height="1"/><rect x="0" y="17" width="1" height="2"/><rect x="10" y="17" width="1" height="2"/><rect x="21" y="17" width="1" height="2"/><rect x="31" y="17" width="1" height="2"/><rect x="1" y="19" width="1" height="1"/><rect x="9" y="19" width="1" height="1"/><rect x="22" y="19" width="1" height="1"/><rect x="30" y="19" width="1" height="1"/><rect x="2" y="20" width="7" height="1"/><rect x="23" y="20" width="7" height="1"/><rect x="10" y="24" width="4" height="1"/><rect x="18" y="24" width="4" height="1"/><rect x="9" y="25" width="1" height="1"/><rect x="22" y="25" width="1" height="1"/><rect x="8" y="26" width="1" height="3"/><rect x="23" y="26" width="1" height="2"/><rect x="29" y="27" width="1" height="1"/><rect x="23" y="28" width="6" height="1"/><rect x="30" y="28" width="1" height="2"/><rect x="7" y="29" width="1" height="1"/><rect x="8" y="30" width="22" height="1"/></g><g fill="#2A2530"><rect x="13" y="0" width="6" height="1"/><rect x="13" y="1" width="1" height="2"/><rect x="18" y="1" width="1" height="2"/><rect x="13" y="3" width="6" height="1"/></g><g fill="#54463C"><rect x="4" y="8" width="1" height="1"/><rect x="28" y="8" width="1" height="1"/></g><g fill="#66645F"><rect x="4" y="10" width="1" height="1"/><rect x="17" y="10" width="1" height="8"/><rect x="27" y="10" width="1" height="1"/><rect x="4" y="11" width="2" height="1"/><rect x="26" y="11" width="2" height="1"/><rect x="3" y="12" width="1" height="4"/><rect x="5" y="12" width="1" height="1"/><rect x="26" y="12" width="1" height="1"/><rect x="28" y="12" width="1" height="4"/><rect x="6" y="13" width="1" height="2"/><rect x="25" y="13" width="1" height="2"/><rect x="7" y="15" width="1" height="2"/><rect x="24" y="15" width="1" height="2"/><rect x="2" y="16" width="1" height="1"/><rect x="29" y="16" width="1" height="1"/><rect x="15" y="18" width="3" height="1"/><rect x="15" y="19" width="1" height="1"/><rect x="17" y="19" width="1" height="6"/><rect x="10" y="27" width="2" height="1"/><rect x="10" y="28" width="1" height="1"/><rect x="8" y="29" width="16" height="1"/></g><g fill="#8A8680"><rect x="15" y="10" width="2" height="8"/><rect x="16" y="19" width="1" height="1"/><rect x="15" y="20" width="2" height="5"/><rect x="9" y="26" width="4" height="1"/><rect x="19" y="26" width="4" height="3"/><rect x="9" y="27" width="1" height="2"/><rect x="12" y="27" width="1" height="1"/><rect x="14" y="27" width="3" height="1"/><rect x="11" y="28" width="2" height="1"/></g><g fill="#B1AFA9"><rect x="3" y="7" width="1" height="1"/><rect x="27" y="7" width="1" height="1"/><rect x="14" y="10" width="1" height="15"/><rect x="10" y="25" width="12" height="1"/></g><g fill="#6A4F22"><rect x="29" y="8" width="1" height="1"/><rect x="2" y="9" width="28" height="1"/><rect x="2" y="19" width="7" height="1"/><rect x="23" y="19" width="7" height="1"/></g><g fill="#A8843F"><rect x="13" y="5" width="6" height="2"/><rect x="1" y="18" width="9" height="1"/><rect x="22" y="18" width="9" height="1"/></g><g fill="#DAB26E"><rect x="13" y="4" width="6" height="1"/><rect x="3" y="8" width="1" height="1"/><rect x="5" y="8" width="23" height="1"/><rect x="1" y="17" width="9" height="1"/><rect x="22" y="17" width="9" height="1"/></g><g fill="#EDD6A2"><rect x="2" y="7" width="1" height="2"/><rect x="4" y="7" width="23" height="1"/><rect x="28" y="7" width="2" height="1"/></g><g fill="#A18262"><rect x="13" y="28" width="6" height="1"/></g><g fill="#C8BBA3"><rect x="4" y="15" width="3" height="2"/><rect x="13" y="26" width="6" height="1"/><rect x="13" y="27" width="1" height="1"/><rect x="17" y="27" width="2" height="1"/></g><g fill="#4A78BE"><rect x="25" y="15" width="2" height="2"/></g><g fill="#A4474B"><rect x="29" y="28" width="1" height="1"/><rect x="24" y="29" width="6" height="1"/></g><g fill="#4A4450"><rect x="14" y="1" width="4" height="2"/></g></svg>
